<?xml version="1.0" standalone="no"?>
<!DOCTYPE svg PUBLIC "-//W3C//DTD SVG 20010904//EN"
 "http://www.w3.org/TR/2001/REC-SVG-20010904/DTD/svg10.dtd">
<svg version="1.0" xmlns="http://www.w3.org/2000/svg"
 width="1393.000000pt" height="1393.000000pt" viewBox="0 0 1393.000000 1393.000000"
 preserveAspectRatio="xMidYMid meet">

<g transform="translate(0.000000,1393.000000) scale(0.100000,-0.100000)"
fill="#ffffff" stroke="none">
<path d="M6750 13924 c-728 -29 -1385 -149 -2040 -373 -1077 -367 -2065 -1009
-2842 -1845 -1208 -1301 -1868 -2978 -1868 -4746 0 -1768 660 -3445 1868
-4746 984 -1059 2279 -1787 3697 -2078 484 -99 864 -136 1400 -136 438 0 681
17 1065 76 1540 236 2969 994 4032 2138 1208 1301 1868 2978 1868 4746 0 1768
-660 3445 -1868 4746 -777 836 -1765 1478 -2842 1845 -573 196 -1171 316
-1775 358 -159 11 -568 20 -695 15z m632 -254 c1499 -101 2843 -651 3988
-1634 136 -116 550 -530 666 -666 983 -1145 1533 -2489 1634 -3988 21 -323 11
-782 -26 -1132 -202 -1932 -1237 -3674 -2854 -4807 -1301 -911 -2928 -1326
-4540 -1157 -1359 142 -2625 694 -3690 1608 -136 116 -550 530 -666 666 -983
1145 -1533 2489 -1634 3988 -13 197 -13 637 0 834 101 1499 651 2843 1634
3988 116 136 530 550 666 666 1139 978 2482 1530 3970 1633 172 12 677 12 852
1z"/>
<path d="M6540 13006 c-170 -13 -459 -46 -564 -66 -28 -5 -100 -18 -160 -29
-59 -11 -122 -25 -140 -30 -17 -5 -78 -19 -136 -31 -58 -12 -114 -25 -125 -30
-11 -5 -60 -20 -110 -33 -120 -33 -265 -76 -290 -87 -11 -5 -76 -30 -145 -55
-69 -25 -139 -52 -157 -60 -17 -8 -34 -15 -37 -15 -6 0 -153 -65 -276 -122
-105 -48 -295 -142 -300 -149 -3 -3 -21 -14 -40 -24 -19 -9 -78 -42 -130 -73
-87 -51 -137 -82 -290 -180 -55 -36 -242 -166 -270 -189 -8 -7 -42 -33 -75
-58 -106 -80 -116 -88 -259 -210 -151 -129 -276 -245 -390 -364 -39 -41 -91
-95 -115 -120 -37 -38 -170 -190 -256 -292 -11 -13 -74 -97 -141 -185 -276
-367 -493 -734 -684 -1154 -58 -129 -150 -352 -150 -366 0 -3 -6 -20 -14 -37
-37 -85 -125 -367 -174 -557 -87 -338 -131 -586 -174 -1000 -17 -166 -17 -891
0 -1050 62 -571 136 -924 292 -1390 300 -900 788 -1689 1455 -2355 190 -190
230 -227 398 -368 917 -770 2014 -1239 3217 -1377 965 -110 1987 27 2900 390
244 96 594 267 798 389 57 33 105 61 107 61 3 0 33 19 200 129 59 38 238 164
252 176 6 5 53 42 104 80 197 149 460 383 638 569 47 50 99 104 116 120 32 34
204 233 247 287 31 38 141 181 175 225 66 87 250 360 273 404 7 14 16 27 20
30 3 3 18 25 31 50 14 25 36 63 49 85 61 104 112 201 127 236 8 21 18 39 22
39 4 0 15 23 25 50 10 28 22 50 27 50 5 0 9 4 9 10 0 5 17 47 38 92 21 46 45
99 52 118 7 19 17 40 22 46 4 6 17 37 28 69 11 32 23 63 28 69 4 6 16 36 26
66 10 30 24 69 31 85 27 62 134 393 151 465 9 41 20 77 24 80 4 3 17 57 29
120 12 63 26 124 31 135 5 11 16 67 25 125 9 58 20 114 26 125 9 20 52 351 69
535 18 202 23 575 10 845 -7 149 -16 272 -20 275 -4 3 -12 59 -18 125 -18 186
-35 305 -42 305 -4 0 -13 42 -19 93 -7 50 -21 121 -31 157 -11 36 -27 106 -36
155 -9 50 -20 95 -24 100 -9 11 -50 175 -50 199 0 9 -4 16 -8 16 -5 0 -14 19
-20 43 -24 96 -36 132 -43 137 -4 3 -15 34 -24 70 -9 36 -20 67 -24 70 -4 3
-18 39 -31 80 -13 41 -27 77 -31 80 -3 3 -16 34 -28 70 -13 36 -26 67 -30 70
-4 3 -18 35 -31 73 -13 37 -27 67 -31 67 -4 0 -15 25 -25 56 -9 31 -23 62 -30
69 -7 7 -21 32 -30 56 -10 24 -21 46 -25 49 -3 3 -17 29 -29 58 -12 28 -26 52
-30 52 -4 0 -18 25 -30 55 -12 30 -26 55 -30 55 -4 0 -15 17 -23 39 -9 21 -22
45 -29 52 -7 8 -22 32 -33 54 -11 22 -28 48 -37 59 -9 10 -22 32 -29 48 -7 17
-23 42 -36 56 -13 14 -23 30 -23 37 0 7 -7 19 -16 26 -9 7 -20 22 -25 34 -15
33 -27 51 -89 126 -17 20 -30 40 -30 43 0 4 -18 30 -40 59 -23 29 -48 63 -58
75 -9 13 -27 35 -39 48 -12 13 -26 30 -30 38 -11 20 -70 91 -123 149 -25 27
-52 60 -61 74 -9 13 -26 31 -38 39 -11 8 -21 19 -21 25 0 5 -98 106 -217 224
-243 239 -250 245 -313 297 -25 20 -57 47 -71 60 -87 77 -332 268 -345 268 -4
0 -23 13 -43 30 -75 62 -93 74 -126 89 -12 5 -27 16 -34 25 -7 9 -19 16 -26
16 -7 0 -23 10 -36 23 -14 12 -46 33 -72 46 -26 13 -47 28 -47 33 0 4 -5 8
-10 8 -6 0 -34 15 -63 33 -29 18 -67 39 -84 46 -18 7 -33 17 -33 21 0 4 -17
15 -39 23 -21 9 -45 22 -52 29 -8 8 -39 24 -69 37 -30 13 -57 27 -60 31 -3 4
-26 15 -52 25 -27 10 -48 21 -48 26 0 4 -10 11 -22 15 -13 3 -54 21 -93 38
-38 18 -86 39 -105 46 -19 7 -40 17 -46 22 -6 4 -30 14 -53 22 -23 9 -56 22
-74 30 -17 8 -61 25 -97 37 -36 12 -69 25 -75 29 -5 4 -35 15 -65 24 -30 9
-64 21 -75 26 -11 5 -51 18 -90 30 -38 11 -79 24 -90 29 -11 5 -60 19 -110 31
-49 12 -99 26 -110 31 -11 5 -65 18 -120 29 -55 12 -113 25 -130 30 -16 6 -79
19 -140 30 -60 10 -132 24 -160 30 -56 11 -354 48 -490 61 -167 15 -749 18
-935 5z m1674 -1377 c94 -7 173 -15 176 -19 3 -4 34 -10 70 -14 114 -11 285
-39 290 -46 3 -4 25 -10 50 -14 67 -10 184 -39 190 -46 3 -4 43 -17 90 -29 47
-12 87 -26 88 -32 2 -5 10 -9 17 -9 23 0 120 -34 133 -47 7 -7 31 -17 52 -23
22 -6 40 -16 40 -22 0 -14 -30 -48 -42 -48 -5 0 -46 -38 -91 -85 -45 -47 -86
-85 -90 -85 -8 0 -512 -507 -637 -641 -47 -50 -107 -115 -134 -143 -26 -28
-55 -60 -62 -71 -17 -24 -109 -128 -146 -166 -16 -15 -28 -31 -28 -35 0 -4
-15 -22 -32 -40 -46 -46 -70 -74 -90 -103 -10 -15 -28 -38 -40 -53 -13 -16
-34 -41 -48 -58 -14 -16 -36 -44 -50 -60 -14 -17 -35 -42 -47 -56 -13 -14 -23
-29 -23 -33 0 -4 -9 -16 -20 -26 -11 -10 -20 -22 -20 -26 0 -4 -11 -20 -24
-35 -41 -46 -54 -62 -73 -91 -19 -28 -30 -43 -67 -85 -11 -14 -30 -40 -40 -59
-11 -19 -30 -45 -43 -58 -13 -13 -23 -30 -23 -37 0 -7 -8 -19 -18 -26 -9 -7
-26 -30 -37 -50 -11 -21 -22 -38 -26 -38 -3 0 -16 -20 -29 -45 -13 -25 -26
-45 -31 -45 -4 0 -16 -18 -28 -41 -12 -22 -30 -50 -41 -61 -11 -12 -20 -27
-20 -33 0 -6 -9 -20 -19 -32 -11 -11 -29 -40 -41 -64 -13 -24 -29 -48 -36 -52
-8 -4 -14 -15 -14 -22 0 -8 -8 -23 -17 -33 -10 -9 -29 -41 -43 -70 -14 -28
-28 -52 -31 -52 -4 0 -17 -21 -30 -47 -12 -27 -26 -50 -29 -53 -4 -3 -17 -27
-31 -55 -13 -27 -30 -56 -36 -63 -7 -7 -13 -20 -13 -28 0 -8 -8 -22 -18 -32
-10 -10 -28 -42 -41 -72 -13 -30 -27 -57 -30 -60 -4 -3 -18 -31 -30 -62 -13
-32 -26 -58 -30 -58 -4 0 -18 -29 -31 -65 -13 -36 -27 -65 -31 -65 -4 0 -15
-21 -25 -47 -10 -27 -21 -50 -24 -53 -9 -8 -50 -111 -50 -126 0 -8 -4 -14 -9
-14 -5 0 -19 -30 -32 -67 -12 -38 -25 -70 -29 -73 -4 -3 -17 -36 -30 -75 -13
-38 -26 -72 -31 -75 -4 -3 -18 -41 -31 -85 -12 -44 -28 -85 -34 -91 -5 -7 -16
-37 -24 -68 -7 -31 -16 -56 -20 -56 -4 0 -17 -42 -29 -92 -13 -51 -26 -95 -31
-98 -4 -3 -17 -50 -30 -105 -13 -55 -26 -102 -30 -105 -4 -3 -17 -59 -31 -125
-13 -66 -27 -122 -30 -125 -4 -3 -15 -54 -25 -115 -9 -60 -20 -112 -24 -115
-4 -3 -10 -27 -14 -54 -7 -42 -6 -47 6 -35 8 8 22 34 32 59 10 25 21 47 25 50
4 3 18 30 30 60 13 30 27 57 30 60 4 3 18 28 31 55 13 28 26 52 30 55 3 3 14
25 25 50 10 25 24 50 31 56 7 5 21 30 30 55 10 24 25 52 35 62 9 10 22 35 29
57 7 22 17 40 21 40 4 0 18 23 30 50 12 28 26 50 30 50 3 0 16 22 28 50 12 28
25 50 29 50 4 0 18 25 31 55 14 30 28 55 31 55 4 0 15 18 25 40 10 22 21 40
25 40 5 0 15 17 23 39 9 21 22 45 29 53 7 7 19 24 26 36 6 12 18 32 25 44 6
12 20 31 30 42 9 11 17 25 17 31 0 6 8 20 18 31 10 10 26 36 35 57 10 20 22
37 26 37 5 0 18 20 30 45 12 25 24 45 29 45 4 0 18 23 31 50 14 28 28 50 32
50 4 0 18 20 30 45 12 25 26 45 30 45 4 0 14 16 23 35 9 19 20 35 25 35 4 0
17 18 30 40 12 22 25 40 29 40 4 0 13 14 21 31 7 16 26 44 42 62 16 17 29 37
29 44 0 6 8 18 18 25 9 7 25 29 36 48 10 19 24 40 31 45 6 6 20 24 31 40 10
17 27 36 36 43 10 7 18 20 18 27 0 8 9 20 20 27 11 7 20 16 20 21 0 9 38 63
63 89 9 10 17 21 17 26 0 4 12 21 28 38 15 17 41 48 57 69 17 20 42 51 58 68
15 18 30 39 32 48 3 10 17 24 30 33 14 9 25 23 25 31 0 7 14 23 30 35 17 12
30 26 30 31 0 5 13 24 30 42 16 18 50 54 75 81 25 27 45 52 45 56 0 4 20 27
45 51 25 24 45 47 45 50 0 20 690 709 710 709 4 0 27 20 51 45 24 25 47 45 50
45 3 0 26 19 51 43 25 23 64 58 87 77 24 19 54 45 67 58 14 12 29 22 33 22 4
0 16 9 26 20 10 11 22 20 28 20 5 0 18 11 29 25 11 14 24 25 30 25 5 0 19 11
30 25 11 14 26 25 33 25 8 0 19 9 25 20 6 11 16 20 23 20 7 0 29 16 51 34 21
19 50 40 65 47 14 8 32 22 39 32 7 9 19 17 27 17 8 0 18 6 22 13 4 7 25 23 46
36 20 12 37 26 37 29 0 4 23 18 50 31 28 14 50 28 50 32 0 4 18 16 41 28 22
12 50 30 61 41 12 11 27 20 33 20 6 0 18 9 28 20 9 11 23 20 30 20 8 0 25 10
39 23 13 12 47 33 76 47 29 14 52 28 52 31 0 4 23 16 50 28 28 12 50 26 50 31
0 4 16 14 36 20 27 9 45 9 80 -1 24 -7 44 -17 44 -20 0 -4 29 -17 65 -29 36
-12 65 -25 65 -29 0 -5 21 -16 48 -26 26 -10 52 -23 57 -29 6 -7 33 -23 60
-36 28 -13 59 -32 69 -42 11 -10 25 -18 32 -18 7 0 17 -6 21 -14 4 -7 22 -20
38 -29 17 -8 46 -29 65 -46 19 -17 40 -31 46 -31 7 0 19 -11 28 -25 9 -14 22
-25 28 -25 7 0 24 -11 38 -25 286 -278 350 -341 350 -347 0 -3 12 -20 28 -36
32 -34 67 -76 102 -121 14 -18 32 -40 40 -50 30 -34 60 -80 60 -91 0 -5 4 -10
9 -10 5 0 19 -17 31 -37 12 -21 28 -42 36 -46 28 -16 16 -44 -21 -51 -19 -4
-35 -11 -35 -15 0 -4 -34 -18 -75 -30 -41 -13 -75 -26 -75 -30 0 -3 -27 -15
-60 -24 -33 -10 -65 -24 -72 -30 -7 -7 -46 -23 -85 -35 -40 -13 -73 -27 -73
-31 0 -5 -10 -11 -22 -14 -29 -6 -91 -30 -98 -37 -6 -7 -78 -37 -107 -45 -13
-4 -23 -10 -23 -14 0 -4 -31 -18 -70 -31 -38 -13 -70 -27 -70 -31 0 -4 -29
-17 -65 -29 -36 -12 -65 -25 -65 -29 0 -5 -21 -16 -47 -26 -27 -10 -51 -22
-54 -27 -3 -4 -32 -18 -65 -29 -32 -12 -61 -25 -64 -29 -3 -5 -30 -18 -60 -30
-30 -12 -57 -25 -60 -28 -3 -4 -29 -18 -57 -31 -29 -14 -53 -28 -53 -31 0 -4
-27 -18 -60 -30 -33 -12 -60 -25 -60 -29 0 -3 -20 -14 -45 -24 -25 -11 -45
-23 -45 -27 0 -4 -26 -18 -57 -31 -32 -12 -61 -28 -65 -34 -4 -7 -28 -20 -54
-30 -26 -10 -55 -26 -65 -36 -11 -11 -26 -19 -34 -19 -8 0 -23 -8 -33 -17 -10
-10 -36 -27 -58 -38 -21 -11 -48 -28 -58 -37 -11 -10 -26 -18 -33 -18 -7 0
-21 -8 -31 -17 -10 -10 -39 -28 -65 -41 -26 -13 -47 -27 -47 -31 0 -4 -22 -17
-50 -29 -27 -12 -50 -26 -50 -30 0 -4 -18 -16 -40 -26 -22 -10 -40 -21 -40
-26 0 -4 -18 -17 -41 -29 -22 -12 -50 -30 -61 -41 -12 -11 -27 -20 -32 -20 -6
0 -27 -14 -46 -30 -19 -17 -47 -36 -62 -43 -16 -6 -28 -15 -28 -18 0 -4 -17
-17 -37 -29 -21 -12 -42 -28 -46 -36 -4 -8 -14 -14 -22 -14 -8 0 -20 -8 -27
-17 -15 -20 -41 -38 -75 -53 -13 -5 -23 -14 -23 -19 0 -5 -18 -20 -40 -32 -22
-13 -40 -26 -40 -31 0 -4 -12 -14 -27 -22 -16 -8 -40 -25 -54 -37 -31 -28 -73
-63 -125 -104 -21 -16 -49 -40 -61 -53 -13 -12 -27 -22 -31 -22 -4 0 -20 -13
-37 -29 -54 -54 -130 -121 -136 -121 -11 0 -438 -412 -438 -424 -1 -5 -28 -37
-60 -70 -106 -110 -161 -170 -161 -177 0 -3 -15 -23 -32 -43 -18 -20 -44 -50
-58 -68 -14 -17 -34 -41 -45 -53 -25 -27 -65 -83 -65 -89 0 -3 -11 -17 -24
-32 -48 -53 -58 -66 -78 -100 -11 -19 -23 -34 -27 -34 -3 0 -12 -12 -18 -27
-7 -16 -26 -44 -43 -63 -16 -19 -30 -40 -30 -47 0 -7 -6 -16 -13 -20 -8 -4
-24 -28 -38 -53 -13 -25 -32 -54 -41 -64 -10 -11 -18 -25 -18 -31 0 -6 -8 -20
-18 -31 -10 -10 -28 -40 -41 -66 -12 -27 -27 -48 -31 -48 -5 0 -14 -16 -20
-35 -6 -19 -17 -38 -24 -42 -7 -5 -23 -35 -36 -68 -13 -33 -29 -63 -34 -67 -6
-4 -8 -8 -4 -8 4 0 45 36 90 80 86 83 167 158 276 258 35 31 86 78 114 104 27
26 53 48 58 50 13 5 89 70 123 106 17 17 35 32 40 32 5 0 22 12 37 28 48 45
73 66 102 84 15 10 36 25 46 35 11 10 36 32 57 48 21 17 52 42 69 58 17 15 34
27 38 27 5 0 16 8 26 18 26 24 80 62 89 62 5 0 14 9 21 20 7 11 19 20 27 20 7
0 20 8 27 18 7 9 26 26 43 36 16 11 38 27 47 36 10 9 31 23 46 31 15 8 33 22
40 32 7 9 19 17 26 17 7 0 23 10 36 23 27 25 56 43 83 53 9 3 17 10 17 15 0 5
15 16 33 25 17 9 36 23 40 30 4 8 14 14 21 14 7 0 24 10 37 23 14 12 46 33 72
47 26 14 47 28 47 32 0 3 21 16 48 29 26 12 50 28 54 34 4 6 25 20 48 30 22
10 40 21 40 24 0 4 17 15 38 26 20 11 46 28 56 38 11 9 26 17 33 17 7 0 21 8
31 18 10 9 40 28 67 41 28 14 52 27 55 31 3 3 26 17 53 29 26 13 47 26 47 31
0 4 21 15 48 25 26 10 50 24 54 31 4 6 30 20 58 30 27 10 50 22 50 27 0 4 23
17 50 29 28 11 50 24 50 28 0 4 18 13 40 20 22 7 48 21 58 30 9 9 39 25 65 35
26 10 47 21 47 25 0 4 27 18 60 30 33 12 60 25 60 29 0 3 28 17 63 31 34 13
64 27 67 30 3 4 31 17 63 29 31 13 57 27 57 31 0 4 25 15 55 25 30 9 55 20 55
24 0 4 32 18 70 31 39 13 70 27 70 31 0 4 32 17 70 30 39 12 70 26 70 29 0 4
33 17 73 30 39 14 74 28 77 32 3 4 35 17 70 28 35 11 67 24 70 28 6 9 105 42
126 42 8 0 14 4 14 9 0 5 34 19 75 32 41 12 75 25 75 29 0 4 10 10 23 13 67
16 143 40 147 46 3 4 43 18 90 31 47 12 87 25 90 29 3 4 37 16 75 26 39 10 72
21 75 25 6 8 153 50 174 50 9 0 16 4 16 8 0 8 164 52 194 52 8 0 16 4 18 10 4
11 194 54 212 47 7 -3 21 -22 31 -44 10 -21 21 -40 24 -43 10 -8 51 -96 51
-109 0 -6 4 -11 8 -11 4 0 16 -24 27 -52 10 -29 21 -55 25 -58 9 -6 50 -134
50 -155 0 -8 4 -15 8 -15 8 0 35 -108 48 -187 4 -24 10 -43 14 -43 14 0 50
-334 50 -471 0 -53 4 -89 10 -89 6 0 10 -40 10 -100 0 -60 -4 -100 -10 -100
-5 0 -10 -24 -10 -54 0 -61 -6 -66 -97 -66 -28 0 -53 -4 -55 -8 -1 -4 -102
-18 -223 -31 -121 -12 -221 -27 -223 -32 -2 -5 -16 -9 -30 -9 -43 0 -256 -32
-262 -39 -3 -4 -75 -18 -160 -31 -85 -13 -157 -27 -160 -31 -3 -4 -61 -17
-130 -30 -69 -12 -127 -25 -130 -29 -3 -4 -57 -17 -120 -29 -63 -13 -117 -26
-120 -30 -3 -4 -44 -15 -92 -25 -49 -10 -88 -22 -88 -27 0 -5 -7 -9 -16 -9
-23 0 -188 -42 -194 -49 -3 -3 -50 -17 -105 -31 -55 -14 -102 -28 -105 -31 -3
-4 -43 -17 -90 -29 -47 -13 -87 -27 -90 -31 -3 -4 -34 -15 -70 -24 -36 -9 -67
-20 -70 -24 -5 -7 -85 -33 -142 -47 -16 -3 -28 -9 -28 -13 0 -4 -35 -18 -77
-31 -43 -13 -80 -26 -83 -30 -3 -3 -39 -17 -80 -30 -41 -13 -77 -28 -80 -32
-3 -4 -35 -17 -70 -28 -35 -11 -67 -24 -70 -28 -3 -4 -30 -16 -60 -26 -30 -11
-57 -22 -60 -26 -3 -4 -34 -17 -70 -30 -36 -13 -67 -26 -70 -29 -3 -4 -33 -18
-67 -31 -35 -14 -63 -28 -63 -32 0 -5 -6 -8 -14 -8 -16 0 -109 -40 -116 -50
-3 -4 -28 -15 -57 -24 -28 -10 -53 -20 -55 -25 -2 -4 -28 -17 -58 -30 -30 -13
-57 -27 -60 -30 -3 -4 -30 -18 -60 -30 -30 -13 -57 -27 -60 -30 -3 -4 -31 -18
-62 -30 -32 -13 -58 -26 -58 -30 0 -4 -22 -15 -50 -25 -27 -10 -50 -21 -50
-25 0 -4 -25 -18 -55 -31 -30 -13 -55 -26 -55 -30 0 -4 -21 -15 -47 -25 -27
-10 -53 -23 -59 -31 -5 -7 -30 -20 -55 -30 -24 -9 -49 -23 -55 -30 -5 -7 -29
-20 -52 -29 -23 -10 -42 -20 -42 -24 0 -4 -22 -18 -50 -31 -27 -13 -50 -26
-50 -29 0 -3 -25 -17 -55 -30 -30 -14 -55 -28 -55 -32 0 -4 -21 -18 -47 -30
-27 -13 -57 -31 -67 -41 -11 -10 -26 -18 -33 -18 -7 0 -21 -8 -31 -17 -10 -10
-36 -27 -57 -38 -22 -11 -47 -28 -57 -37 -10 -10 -24 -18 -31 -18 -7 0 -23 -9
-34 -19 -12 -11 -42 -30 -67 -42 -25 -11 -46 -25 -46 -29 0 -5 -20 -19 -45
-31 -25 -12 -45 -26 -45 -29 0 -4 -18 -15 -40 -25 -22 -10 -40 -22 -40 -26 0
-4 -20 -18 -45 -30 -25 -12 -45 -26 -45 -29 0 -4 -20 -17 -45 -30 -25 -13 -45
-28 -45 -34 0 -8 -3 -8 -8 0 -4 5 -34 21 -67 34 -33 13 -62 27 -65 30 -3 4
-36 17 -75 30 -38 13 -72 26 -75 30 -3 3 -36 15 -75 25 -38 10 -72 21 -75 25
-6 9 -210 50 -249 50 -16 0 -31 6 -34 13 -5 16 -614 18 -625 2 -4 -6 -70 -21
-147 -34 -77 -12 -142 -27 -145 -31 -3 -5 -38 -16 -78 -25 -39 -9 -72 -20 -72
-24 0 -4 -35 -18 -77 -31 -43 -13 -84 -30 -92 -38 -15 -15 -79 -11 -90 6 -3 5
-30 20 -58 32 -29 12 -53 26 -53 30 0 5 -20 16 -45 26 -25 9 -45 20 -45 23 0
4 -25 18 -55 31 -30 13 -55 27 -55 31 0 4 -21 18 -47 30 -27 13 -54 29 -61 36
-7 7 -30 20 -50 30 -20 10 -46 25 -56 35 -11 10 -25 18 -30 18 -6 0 -22 12
-35 25 -13 14 -28 25 -35 25 -6 0 -24 12 -41 26 -16 14 -43 33 -60 41 -16 9
-36 24 -43 34 -7 11 -20 19 -27 19 -8 0 -20 9 -27 20 -7 11 -16 20 -21 20 -14
0 -78 49 -142 111 -12 10 -26 19 -32 19 -6 0 -21 14 -33 30 -12 17 -26 30 -32
30 -10 0 -31 18 -158 140 -41 40 -86 80 -100 90 -35 25 -146 137 -172 172 -11
16 -47 55 -79 86 -33 31 -59 60 -59 64 0 5 -20 28 -45 52 -25 25 -45 48 -45
52 0 4 -15 22 -32 40 -18 18 -44 46 -58 64 -14 17 -34 42 -46 55 -12 13 -31
39 -43 59 -13 20 -26 36 -30 36 -4 0 -15 15 -26 33 -10 17 -27 38 -37 45 -10
7 -18 19 -18 27 0 8 -8 20 -17 27 -20 15 -38 41 -53 76 -5 12 -14 22 -19 22
-5 0 -16 16 -26 36 -9 19 -23 38 -31 41 -8 3 -14 11 -14 18 0 6 -10 23 -23 36
-12 14 -33 46 -46 72 -13 26 -28 47 -32 47 -4 0 -18 21 -31 48 -13 26 -28 50
-34 54 -6 4 -19 25 -29 48 -10 22 -21 40 -25 40 -5 0 -15 18 -24 40 -9 22 -19
40 -24 40 -4 0 -18 24 -32 53 -14 28 -32 60 -41 70 -9 10 -22 35 -29 57 -7 22
-17 40 -21 40 -4 0 -18 23 -30 50 -12 28 -26 50 -29 50 -4 0 -13 18 -20 40 -7
22 -21 48 -30 58 -9 9 -25 39 -35 65 -10 26 -21 47 -25 47 -4 0 -18 27 -30 60
-12 33 -26 60 -29 60 -4 0 -15 25 -25 55 -9 30 -23 60 -30 68 -7 7 -24 42 -37
78 -13 35 -27 66 -31 67 -10 5 -10 52 0 52 4 0 18 32 31 70 12 39 26 70 30 70
5 0 19 27 31 60 12 33 25 60 29 60 3 0 17 27 30 60 13 33 28 60 33 60 4 0 15
18 24 40 9 22 20 40 24 40 4 0 17 20 29 45 12 25 26 45 31 45 6 0 10 5 10 10
0 12 34 62 68 100 12 13 22 30 22 37 0 7 9 17 20 23 11 6 20 17 20 25 0 7 11
22 25 33 14 11 25 25 25 30 0 6 11 19 25 30 14 11 25 24 25 28 1 28 492 534
518 534 4 0 19 12 32 28 14 15 39 38 56 52 63 51 128 105 144 120 8 8 31 26
50 40 40 28 61 46 94 78 38 36 46 28 46 -45 0 -128 23 -503 32 -503 4 0 8 -17
8 -37 0 -65 43 -508 50 -513 3 -3 17 -86 29 -185 13 -99 26 -182 30 -185 4 -3
18 -76 32 -162 13 -87 27 -158 30 -158 4 0 15 -45 24 -100 10 -55 21 -100 25
-100 4 0 10 -19 14 -42 10 -64 39 -182 46 -188 3 -3 16 -50 30 -105 13 -55 27
-102 31 -105 4 -3 17 -43 29 -90 13 -47 27 -87 31 -90 4 -3 14 -32 23 -64 8
-33 19 -62 23 -65 5 -3 19 -41 33 -83 13 -43 27 -78 30 -78 4 0 15 -28 25 -61
11 -34 24 -67 29 -73 12 -12 45 -96 53 -133 3 -13 9 -23 13 -23 4 0 18 -27 30
-60 12 -33 26 -60 30 -60 4 0 16 -22 26 -50 10 -27 21 -50 24 -50 4 0 17 -24
30 -52 13 -29 27 -55 30 -58 4 -3 18 -25 30 -50 12 -25 26 -47 30 -50 3 -3 17
-26 29 -52 13 -27 26 -48 30 -48 5 0 17 -19 27 -42 10 -23 29 -53 42 -67 12
-13 22 -30 22 -37 0 -7 9 -18 20 -24 11 -6 20 -17 20 -24 0 -7 10 -24 23 -38
27 -31 44 -56 56 -84 5 -12 17 -24 25 -27 9 -4 16 -13 16 -20 0 -18 28 -42 37
-33 4 4 3 10 -3 14 -6 4 -19 39 -29 77 -10 39 -21 72 -25 75 -7 5 -50 181 -50
204 0 8 -4 16 -10 18 -5 1 -19 48 -31 103 -12 55 -25 102 -29 105 -4 3 -17 59
-30 125 -13 66 -26 122 -30 125 -4 3 -15 50 -25 105 -10 55 -22 102 -26 105
-4 3 -17 68 -30 145 -12 77 -25 142 -29 145 -4 3 -17 84 -30 180 -13 96 -27
177 -31 180 -3 3 -9 32 -13 65 -4 33 -13 114 -21 180 -8 66 -15 137 -15 157 0
20 -4 38 -9 40 -8 3 -41 389 -41 485 0 28 -4 53 -9 55 -6 2 -14 164 -20 377
-11 397 2 1143 20 1149 5 2 9 31 9 65 0 141 30 458 44 473 8 8 35 23 60 34 25
10 46 23 46 28 0 4 23 16 50 26 28 10 50 21 50 25 0 3 27 17 60 30 33 13 60
27 60 30 0 6 65 34 110 47 13 3 30 13 37 20 8 7 38 21 68 30 30 10 55 21 55
25 0 4 26 15 58 25 31 10 63 24 70 31 7 7 19 13 27 13 19 0 119 33 125 41 3 4
43 17 90 29 47 13 87 27 90 31 3 4 48 17 100 29 52 12 97 25 100 29 3 4 50 16
105 26 55 10 102 21 105 25 5 7 182 35 293 46 37 4 67 11 67 15 0 5 25 9 55 9
30 0 55 -3 55 -7 0 -13 -25 -78 -32 -83 -9 -7 -48 -126 -48 -146 0 -8 -4 -14
-9 -14 -5 0 -19 -34 -32 -75 -12 -41 -25 -75 -28 -75 -4 0 -16 -34 -26 -76
-10 -42 -24 -82 -30 -88 -6 -6 -20 -44 -30 -83 -10 -40 -22 -73 -26 -73 -3 0
-16 -43 -28 -95 -13 -52 -26 -95 -30 -95 -3 0 -18 -46 -31 -102 -13 -57 -27
-105 -32 -108 -4 -3 -18 -53 -30 -110 -12 -58 -25 -107 -29 -110 -4 -3 -18
-57 -31 -120 -13 -63 -26 -117 -29 -120 -3 -3 -15 -48 -25 -100 -10 -52 -21
-97 -25 -100 -7 -6 -49 -246 -49 -283 0 -15 -4 -27 -8 -27 -9 0 -52 -279 -52
-332 0 -16 -4 -28 -8 -28 -9 0 -36 -224 -48 -395 -4 -49 -10 -92 -14 -95 -15
-10 -34 -478 -33 -825 0 -350 18 -775 33 -785 4 -3 10 -43 13 -90 12 -150 40
-395 47 -400 4 -3 17 -80 30 -172 35 -255 40 -240 65 177 10 154 20 282 24
285 4 3 15 95 25 205 10 110 22 202 27 203 5 2 9 13 9 25 0 44 44 392 50 397
4 3 17 75 30 160 12 85 26 157 30 160 4 3 18 73 31 155 13 83 26 152 30 155 4
3 17 59 29 125 13 66 26 122 30 125 4 3 10 23 14 45 14 78 31 145 37 145 4 0
9 19 13 43 11 66 39 181 46 187 4 3 17 50 30 105 13 55 26 102 31 105 4 3 17
47 29 98 12 50 25 92 29 92 4 0 16 34 26 75 11 41 22 75 26 75 3 0 17 41 30
90 12 50 26 90 29 90 4 0 18 37 31 83 12 45 28 87 33 93 6 6 20 43 31 82 10
40 22 72 26 72 4 0 15 26 25 58 10 31 21 59 26 62 4 3 17 35 28 70 11 35 24
67 28 70 4 3 18 37 32 75 13 39 29 76 36 83 7 6 20 37 29 67 8 30 20 55 24 55
5 0 17 25 26 55 10 30 21 55 25 55 4 0 18 28 31 63 12 34 26 64 29 67 3 3 17
30 29 60 13 30 27 57 31 60 3 3 17 31 30 63 13 31 27 57 30 57 4 0 13 18 20
40 7 22 20 47 29 57 9 10 25 38 36 63 11 25 22 47 26 50 3 3 16 28 30 55 13
28 27 52 30 55 3 3 16 28 29 55 13 28 27 52 30 55 4 3 17 28 31 55 13 28 30
56 38 64 7 8 18 27 23 42 12 34 17 36 125 45 48 4 90 10 93 15 16 24 737 37
1024 18z m-6686 -4076 c64 -73 148 -163 250 -267 56 -57 102 -107 102 -111 0
-13 656 -655 669 -655 4 0 33 -27 64 -60 30 -33 59 -60 64 -60 4 0 28 -20 52
-45 24 -25 48 -45 52 -45 7 0 83 -68 144 -130 17 -16 34 -30 39 -30 5 0 19
-10 31 -22 28 -29 102 -90 124 -102 9 -6 24 -20 34 -33 10 -13 23 -23 29 -23
5 0 19 -11 30 -25 11 -14 25 -25 33 -25 7 0 20 -11 29 -25 9 -14 23 -25 31
-25 8 0 22 -11 31 -25 9 -14 22 -25 29 -25 8 0 22 -10 32 -23 10 -13 25 -26
33 -30 29 -13 55 -32 68 -49 7 -10 19 -18 27 -18 8 0 20 -8 27 -18 7 -10 30
-28 50 -40 20 -13 38 -26 40 -30 4 -10 65 -52 75 -52 5 0 14 -9 21 -20 7 -11
18 -20 25 -20 11 0 28 -13 94 -69 12 -10 28 -21 35 -25 32 -16 55 -33 78 -53
13 -13 29 -23 36 -23 7 0 19 -8 26 -18 7 -9 34 -29 61 -42 26 -14 47 -28 47
-32 0 -4 16 -15 35 -24 19 -9 35 -20 35 -25 0 -5 20 -18 45 -29 25 -11 45 -24
45 -29 0 -5 13 -14 29 -19 16 -6 38 -19 48 -29 11 -11 41 -30 66 -42 26 -13
47 -26 47 -29 0 -4 19 -16 42 -27 24 -11 51 -28 60 -37 10 -10 24 -18 31 -18
7 0 22 -8 33 -18 10 -10 40 -28 67 -41 26 -12 47 -26 47 -30 0 -4 25 -18 55
-31 30 -13 55 -27 55 -30 0 -3 24 -16 53 -30 28 -14 61 -33 71 -42 11 -10 25
-18 32 -18 7 0 19 -6 26 -13 7 -6 37 -23 66 -36 28 -14 52 -28 52 -31 0 -4 27
-18 60 -30 33 -12 60 -25 60 -29 0 -3 27 -17 60 -30 33 -13 60 -27 60 -31 0
-3 23 -14 50 -24 28 -10 50 -22 50 -26 0 -4 14 -13 31 -19 27 -9 33 -31 9 -31
-5 0 -21 -11 -36 -25 -15 -14 -33 -25 -40 -25 -7 0 -17 -6 -21 -12 -4 -7 -18
-19 -30 -25 -67 -37 -70 -40 -127 -89 -17 -14 -46 -32 -65 -41 -20 -9 -40 -23
-44 -30 -4 -7 -22 -20 -40 -29 -18 -9 -36 -23 -40 -30 -4 -8 -13 -14 -20 -14
-7 0 -27 -14 -46 -30 -18 -17 -37 -30 -40 -30 -3 0 -24 -16 -46 -35 -22 -19
-45 -35 -52 -35 -7 0 -17 -9 -23 -20 -6 -11 -17 -20 -24 -20 -7 0 -24 -10 -38
-22 -38 -35 -86 -68 -98 -68 -5 0 -10 -4 -10 -10 0 -5 -12 -17 -26 -27 -24
-16 -29 -15 -79 2 -30 10 -56 23 -59 30 -2 7 -27 21 -55 31 -28 10 -51 21 -51
25 0 4 -21 17 -47 29 -27 12 -50 25 -53 29 -3 4 -27 18 -55 31 -27 13 -56 30
-63 36 -7 7 -28 18 -47 25 -19 7 -35 17 -35 21 0 5 -20 17 -45 28 -25 11 -45
23 -45 28 0 5 -18 15 -40 22 -22 7 -47 20 -57 29 -10 10 -39 27 -65 40 -27 12
-48 26 -48 31 0 4 -13 12 -28 18 -16 5 -35 16 -43 24 -8 7 -35 24 -61 36 -27
12 -48 25 -48 30 0 4 -25 18 -55 31 -30 14 -55 28 -55 32 0 4 -21 18 -47 31
-27 13 -51 28 -55 34 -4 6 -21 17 -38 24 -16 7 -30 15 -30 19 0 4 -22 18 -50
32 -27 13 -50 27 -50 31 0 4 -19 17 -42 29 -24 12 -45 25 -48 29 -3 4 -24 18
-47 30 -24 12 -43 26 -43 30 0 4 -16 15 -35 24 -19 9 -35 20 -35 25 0 4 -22
18 -50 32 -27 13 -50 27 -50 31 0 4 -18 17 -40 28 -22 11 -40 24 -40 29 0 5
-8 11 -17 14 -27 9 -77 40 -86 55 -4 6 -14 12 -21 12 -7 0 -27 13 -46 30 -18
16 -46 35 -62 42 -15 7 -28 16 -28 20 0 3 -17 17 -37 29 -21 13 -41 27 -44 32
-7 10 -46 34 -71 43 -10 3 -18 10 -18 14 0 5 -17 19 -37 31 -21 13 -42 29 -46
36 -4 7 -14 13 -22 13 -8 0 -20 9 -27 20 -7 11 -16 20 -21 20 -9 0 -62 36 -97
68 -13 12 -30 22 -37 22 -7 0 -17 9 -23 20 -6 11 -16 20 -23 20 -7 0 -30 16
-52 35 -22 20 -48 38 -57 41 -10 3 -18 9 -18 14 0 5 -16 18 -36 31 -34 20 -60
42 -110 89 -12 11 -25 20 -30 20 -5 0 -29 18 -54 40 -25 22 -50 40 -56 40 -7
0 -19 11 -28 25 -9 14 -23 25 -30 25 -8 0 -21 11 -30 25 -9 14 -23 25 -31 25
-7 0 -20 8 -27 18 -7 9 -30 28 -50 42 -46 31 -54 52 -69 205 -7 66 -16 122
-20 125 -10 7 -29 335 -29 492 0 174 19 462 31 466 5 2 9 17 9 34 0 46 42 302
50 308 4 3 11 24 15 48 4 23 10 42 13 42 4 0 22 -17 40 -37z m10919 -1259 c-8
-117 -28 -267 -37 -274 -3 -3 -14 -41 -23 -85 -9 -44 -22 -81 -27 -83 -6 -2
-10 -9 -10 -17 0 -19 -39 -138 -48 -145 -4 -3 -18 -29 -31 -57 -14 -29 -27
-53 -31 -53 -4 0 -12 -11 -18 -25 -6 -13 -42 -56 -79 -95 -60 -63 -71 -70
-105 -70 -21 0 -38 -4 -38 -8 0 -4 -118 -19 -262 -31 -145 -13 -265 -27 -268
-31 -3 -4 -97 -17 -210 -30 -113 -12 -207 -26 -210 -30 -3 -4 -71 -16 -152
-26 -82 -10 -148 -22 -148 -26 0 -4 -12 -8 -26 -8 -41 0 -298 -42 -304 -50 -3
-4 -70 -17 -150 -30 -80 -13 -147 -26 -150 -30 -3 -4 -63 -17 -135 -30 -71
-13 -132 -27 -135 -31 -3 -3 -50 -14 -105 -24 -55 -10 -102 -21 -105 -25 -3
-5 -50 -18 -105 -29 -55 -12 -102 -26 -105 -30 -3 -4 -23 -11 -45 -15 -71 -13
-180 -40 -185 -46 -3 -3 -48 -17 -100 -30 -52 -12 -97 -26 -100 -30 -3 -3 -45
-17 -95 -30 -49 -12 -92 -26 -95 -29 -3 -4 -36 -15 -75 -25 -38 -10 -72 -21
-75 -26 -3 -4 -43 -18 -90 -31 -47 -13 -90 -28 -96 -34 -6 -6 -46 -20 -88 -30
-42 -10 -76 -22 -76 -26 0 -4 -33 -17 -72 -30 -40 -12 -75 -25 -78 -29 -3 -4
-31 -16 -62 -26 -32 -10 -58 -21 -58 -24 0 -4 -33 -17 -72 -30 -40 -14 -75
-28 -78 -32 -4 -4 -33 -17 -65 -28 -32 -11 -61 -24 -65 -28 -3 -5 -34 -19 -69
-31 -36 -13 -71 -30 -78 -37 -8 -7 -32 -18 -53 -24 -22 -6 -40 -14 -40 -18 0
-4 -29 -19 -65 -32 -36 -13 -65 -27 -65 -31 0 -4 -27 -18 -60 -31 -33 -12 -60
-26 -60 -29 0 -4 -26 -17 -57 -30 -31 -13 -65 -31 -75 -41 -10 -10 -24 -18
-32 -18 -8 0 -21 -6 -28 -12 -7 -7 -35 -24 -63 -37 -27 -14 -52 -27 -55 -30
-3 -3 -27 -17 -55 -30 -27 -14 -52 -28 -55 -31 -3 -4 -25 -18 -50 -30 -25 -12
-47 -26 -50 -30 -3 -3 -27 -17 -54 -31 -28 -13 -61 -34 -74 -46 -14 -13 -31
-23 -38 -23 -8 0 -14 -4 -14 -8 0 -5 -20 -19 -45 -32 -25 -13 -45 -26 -45 -30
0 -3 -20 -17 -45 -29 -25 -12 -45 -25 -45 -29 0 -4 -21 -18 -47 -32 -26 -14
-58 -35 -72 -47 -13 -13 -29 -23 -35 -23 -6 0 -17 -9 -24 -20 -7 -11 -18 -20
-25 -20 -6 0 -27 -13 -46 -29 -19 -16 -46 -35 -60 -43 -14 -7 -32 -21 -39 -30
-7 -10 -20 -18 -27 -18 -8 0 -20 -9 -27 -20 -7 -11 -17 -20 -23 -20 -5 0 -30
-18 -55 -40 -25 -22 -48 -40 -51 -40 -3 0 -17 -10 -31 -22 -14 -13 -40 -34
-59 -48 -18 -14 -46 -37 -62 -52 -16 -16 -32 -28 -37 -28 -4 0 -20 -13 -33
-30 -14 -16 -30 -30 -36 -30 -5 0 -18 -10 -28 -23 -10 -13 -26 -28 -36 -33
-24 -14 -90 -72 -186 -166 -43 -43 -82 -78 -86 -78 -4 0 -25 -18 -47 -40 -25
-24 -50 -40 -64 -40 -13 0 -24 -4 -24 -10 0 -6 -35 -10 -85 -10 -50 0 -85 4
-85 10 0 6 -13 10 -28 10 -35 0 -173 36 -181 47 -3 4 -19 15 -36 23 -28 13
-77 60 -133 125 -12 15 -32 57 -45 93 -12 37 -25 69 -28 72 -13 10 -29 152
-29 259 0 96 2 113 19 127 10 9 31 27 45 40 15 13 31 24 35 24 4 0 16 9 26 20
10 11 22 20 28 20 5 0 18 11 29 25 11 14 25 25 31 25 7 0 18 9 25 20 7 11 19
20 27 20 8 0 20 9 27 20 7 11 18 20 24 20 6 0 19 9 29 20 10 11 22 20 26 20 4
0 19 10 33 23 52 46 82 70 103 80 13 6 23 14 23 19 0 5 10 13 23 18 33 15 61
33 70 48 4 6 22 19 40 28 18 9 36 23 40 30 4 7 24 21 45 31 20 9 41 23 45 30
4 7 22 20 40 29 18 9 36 23 40 30 4 8 14 14 22 14 8 0 20 8 27 18 7 10 33 29
58 43 25 13 47 27 48 32 2 4 21 17 43 27 21 11 39 24 39 29 0 5 8 11 18 14 25
8 76 40 84 53 4 6 21 17 38 24 16 7 30 16 30 20 0 5 21 18 48 31 26 12 50 28
54 34 4 6 25 20 48 30 22 10 40 21 40 25 0 3 21 17 48 30 26 13 51 29 55 37 4
7 15 13 22 13 8 0 23 8 33 18 9 9 41 28 70 42 28 14 52 27 52 31 0 3 23 16 50
29 28 13 50 26 50 30 0 3 25 17 55 31 30 13 55 27 55 31 0 4 17 15 37 23 21 9
40 19 43 24 3 4 28 18 55 31 28 13 52 26 55 30 3 4 28 17 55 30 28 13 52 26
55 30 3 3 25 14 50 25 25 10 50 24 56 32 6 7 36 22 67 34 32 12 57 25 57 28 0
4 23 15 50 26 28 11 50 22 50 26 0 3 27 17 60 30 33 13 60 27 60 30 0 4 28 17
63 30 34 12 64 26 67 29 3 4 31 17 63 30 31 13 57 27 57 30 0 4 25 15 55 25
30 9 55 20 55 25 0 4 25 15 55 25 31 9 61 22 68 29 12 12 88 41 135 53 12 3
22 9 22 14 0 4 33 18 73 31 39 12 77 28 83 33 6 6 34 17 62 25 29 7 52 17 52
21 0 4 33 17 73 30 39 12 74 25 77 29 3 4 39 18 80 31 41 12 77 26 80 29 6 7
140 50 158 50 7 0 12 4 12 8 0 5 41 19 90 31 50 13 90 27 90 31 0 4 34 15 75
25 41 11 75 22 75 26 0 4 42 17 93 29 50 13 94 26 97 30 3 4 50 18 105 30 55
13 102 27 105 31 3 4 50 17 105 28 55 12 102 26 105 30 3 4 48 16 100 26 52
10 97 21 100 25 3 4 59 18 125 30 66 13 122 26 125 30 3 4 68 17 145 30 77 13
142 27 145 30 5 7 161 33 270 46 30 4 57 10 60 15 3 4 68 15 145 25 77 9 142
20 145 24 5 7 372 50 427 50 17 0 33 4 35 9 3 8 293 35 513 47 66 4 122 11
125 15 3 4 109 12 235 17 127 5 232 10 234 10 2 1 1 -41 -2 -94z m-5217 -2516
c33 -6 60 -15 60 -19 0 -4 34 -15 75 -24 41 -9 75 -20 75 -24 0 -4 47 -18 104
-31 l104 -23 7 -93 c8 -98 -9 -296 -26 -302 -5 -2 -9 -11 -9 -20 0 -29 -43
-192 -51 -192 -4 0 -17 -29 -29 -65 -12 -36 -25 -65 -29 -65 -3 0 -15 -20 -26
-45 -11 -25 -23 -45 -27 -45 -3 0 -17 -17 -29 -37 -21 -33 -50 -65 -124 -133
-11 -10 -39 -25 -62 -32 -24 -7 -43 -17 -43 -23 0 -6 -3 -6 -8 0 -4 6 -42 21
-84 35 -43 13 -78 27 -78 30 0 4 -36 18 -80 31 -44 13 -80 27 -80 31 0 4 -18
12 -40 18 -21 6 -45 16 -52 23 -7 7 -46 23 -85 35 -40 13 -73 26 -73 30 0 4
-27 16 -60 25 -33 10 -65 24 -72 30 -7 7 -46 23 -85 36 -40 13 -73 27 -73 32
0 4 -25 16 -55 25 -30 10 -55 21 -55 25 0 4 -29 17 -65 29 -36 12 -65 26 -65
31 0 5 -7 9 -15 9 -8 0 -15 5 -15 10 0 6 4 10 9 10 4 0 19 10 32 23 13 13 40
32 59 43 19 10 41 27 48 37 7 9 19 17 27 17 8 0 20 8 27 19 7 10 28 26 46 35
17 9 32 21 32 26 0 6 5 10 10 10 11 0 60 33 94 63 11 9 25 17 31 17 6 0 21 9
33 20 11 11 39 29 61 41 23 12 41 24 41 28 0 4 18 15 40 25 22 10 40 21 40 26
0 5 23 19 50 31 28 12 50 25 50 29 0 5 21 19 48 31 26 13 55 30 65 40 10 9 35
22 57 29 21 7 41 19 44 25 2 7 21 18 40 25 20 6 36 16 36 21 0 12 61 39 77 34
7 -2 39 -10 73 -17z"/>
</g>
</svg>
